<svg xmlns="http://www.w3.org/2000/svg" viewBox="0 0 32 32" width="32" height="32">
  <!-- Green background rounded square -->
  <rect width="32" height="32" rx="7" ry="7" fill="#10B981"/>
  
  <!-- Shield outline (white) -->
  <path d="M16 4 L26 9 L26 18 C26 24 21 28 16 30 C11 28 6 24 6 18 L6 9 Z" 
        fill="none" stroke="white" stroke-width="1.5" stroke-linejoin="round"/>
  
  <!-- Dollar sign (white) -->
  <line x1="16" y1="10" x2="16" y2="23" stroke="white" stroke-width="1.5" stroke-linecap="round"/>
  <path d="M19.5 12.5 C19.5 10.5 18 9.5 16 9.5 C14 9.5 12.5 10.5 12.5 12.5 C12.5 14.5 14 15 16 15.5" 
        fill="none" stroke="white" stroke-width="1.5" stroke-linecap="round"/>
  <path d="M12.5 20.5 C12.5 22.5 14 23.5 16 23.5 C18 23.5 19.5 22.5 19.5 20.5 C19.5 18.5 18 18 16 17.5" 
        fill="none" stroke="white" stroke-width="1.5" stroke-linecap="round"/>
</svg>