<svg xmlns="http://www.w3.org/2000/svg" viewBox="0 0 100 100" width="100" height="100">
  <defs>
    <linearGradient id="sg" x1="0%" y1="0%" x2="100%" y2="100%">
      <stop offset="0%" style="stop-color:#10B981;stop-opacity:1" />
      <stop offset="100%" style="stop-color:#059669;stop-opacity:1" />
    </linearGradient>
  </defs>
  
  <!-- Shield shape -->
  <path d="M50 6 L90 22 L90 54 C90 78 73 94 50 102 C27 94 10 78 10 54 L10 22 Z" 
        fill="url(#sg)" opacity="0.12" stroke="url(#sg)" stroke-width="2.5"/>
  
  <!-- Inner shield -->
  <path d="M50 16 L80 28 L80 52 C80 71 68 84 50 90 C32 84 20 71 20 52 L20 28 Z" 
        fill="none" stroke="#10B981" stroke-width="1.2" opacity="0.3"/>
  
  <!-- Dollar S mark -->
  <line x1="50" y1="30" x2="50" y2="76" stroke="#10B981" stroke-width="3" stroke-linecap="round"/>
  <path d="M62 40 C62 33 56 28 50 28 C44 28 38 33 38 40 C38 47 44 49 50 51" 
        fill="none" stroke="#10B981" stroke-width="3" stroke-linecap="round"/>
  <path d="M38 62 C38 69 44 74 50 74 C56 74 62 69 62 62 C62 55 56 53 50 51" 
        fill="none" stroke="#10B981" stroke-width="3" stroke-linecap="round"/>
  
  <!-- Flow arrows -->
  <g opacity="0.5">
    <line x1="72" y1="44" x2="86" y2="44" stroke="#10B981" stroke-width="1.8" stroke-linecap="round"/>
    <polyline points="83,41 86,44 83,47" fill="none" stroke="#10B981" stroke-width="1.8" stroke-linecap="round" stroke-linejoin="round"/>
  </g>
  <g opacity="0.3">
    <line x1="76" y1="56" x2="90" y2="56" stroke="#10B981" stroke-width="1.8" stroke-linecap="round"/>
    <polyline points="87,53 90,56 87,59" fill="none" stroke="#10B981" stroke-width="1.8" stroke-linecap="round" stroke-linejoin="round"/>
  </g>
</svg>